<?xml version="1.0" encoding="utf-8"?>
<!-- Svg Vector Icons : http://www.onlinewebfonts.com/icon -->
<!DOCTYPE svg PUBLIC "-//W3C//DTD SVG 1.1//EN" "http://www.w3.org/Graphics/SVG/1.1/DTD/svg11.dtd">
<svg version="1.1" xmlns="http://www.w3.org/2000/svg" xmlns:xlink="http://www.w3.org/1999/xlink" x="0px" y="0px" viewBox="0 0 1000 1000" enable-background="new 0 0 1000 1000" xml:space="preserve">
<metadata> Svg Vector Icons : http://www.onlinewebfonts.com/icon </metadata>
<g><path d="M297,598"/><path fill="#55BB55" d="M554.1,990C462.7,876.3,355.2,789.7,280,762.7l177.4-108.3l86,167.8c0,0,176.9-292,397.3-405.7c0,72.6,0.3,189,0.3,238.2C844.2,676.3,618.6,870.9,554.1,990z M794,450.6V157c0-27.1-21.9-49-49-49H598V10h196c54.1,0,98,43.9,98,98v259C881,373.8,794,450.6,794,450.6z M500,157h150.7c18.6,0,33.6,16.3,33.6,36.5c0,20.2,0,60.7,0,60.7H255c0,0,0-40.5,0-60.7c0-20.1,15.1-36.5,33.6-36.5H451c-27.1,0-49-21.9-49-49V59c0-27.1,21.9-49,49-49h49c27.1,0,49,21.9,49,49v49C549,135.1,527.1,157,500,157z M473.3,44.2c-19.8,0-35.8,15.7-35.8,35c0,19.4,16,35,35.8,35c19.8,0,35.8-15.7,35.8-35C509.1,59.9,493.1,44.2,473.3,44.2z M157,157v686c0,27.1,21.9,49,49,49h147v98H157c-54.1,0-98-43.9-98-98V108c0-54.1,43.9-98,98-98h196v98H206C178.9,108,157,129.9,157,157z M745,892c27.1,0,49-21.9,49-49v-12.1l98-98.5V892c0,54.1-43.9,98-98,98H635.7l97.5-98H745z"/></g>
</svg>
